<svg xmlns="http://www.w3.org/2000/svg" xmlns:xlink="http://www.w3.org/1999/xlink" width="400" zoomAndPan="magnify" viewBox="0 0 300 74.999997" height="100" preserveAspectRatio="xMidYMid meet" version="1.0"><defs><g/></defs><g fill="#ffffff" fill-opacity="1"><g transform="translate(-0.216064, 52.427663)"><g><path d="M 15.546875 -29.015625 C 17.160156 -29.015625 18.753906 -28.832031 20.328125 -28.46875 C 21.910156 -28.101562 23.082031 -27.734375 23.84375 -27.359375 L 25 -26.8125 L 21.8125 -20.4375 C 19.613281 -21.613281 17.523438 -22.203125 15.546875 -22.203125 C 14.453125 -22.203125 13.675781 -22.082031 13.21875 -21.84375 C 12.757812 -21.601562 12.53125 -21.15625 12.53125 -20.5 C 12.53125 -20.351562 12.546875 -20.207031 12.578125 -20.0625 C 12.617188 -19.914062 12.691406 -19.773438 12.796875 -19.640625 C 12.910156 -19.515625 13.015625 -19.40625 13.109375 -19.3125 C 13.203125 -19.21875 13.359375 -19.113281 13.578125 -19 C 13.796875 -18.894531 13.96875 -18.816406 14.09375 -18.765625 C 14.21875 -18.710938 14.425781 -18.628906 14.71875 -18.515625 C 15.019531 -18.410156 15.242188 -18.328125 15.390625 -18.265625 C 15.535156 -18.210938 15.78125 -18.128906 16.125 -18.015625 C 16.476562 -17.910156 16.742188 -17.84375 16.921875 -17.8125 C 18.054688 -17.476562 19.046875 -17.109375 19.890625 -16.703125 C 20.734375 -16.296875 21.617188 -15.742188 22.546875 -15.046875 C 23.484375 -14.359375 24.207031 -13.484375 24.71875 -12.421875 C 25.238281 -11.359375 25.5 -10.148438 25.5 -8.796875 C 25.5 -2.378906 21.046875 0.828125 12.140625 0.828125 C 10.128906 0.828125 8.21875 0.515625 6.40625 -0.109375 C 4.59375 -0.734375 3.28125 -1.359375 2.46875 -1.984375 L 1.265625 -2.96875 L 5.21875 -9.609375 C 5.507812 -9.359375 5.894531 -9.054688 6.375 -8.703125 C 6.851562 -8.359375 7.710938 -7.882812 8.953125 -7.28125 C 10.203125 -6.675781 11.285156 -6.375 12.203125 -6.375 C 14.210938 -6.375 15.21875 -7.050781 15.21875 -8.40625 C 15.21875 -9.03125 14.960938 -9.515625 14.453125 -9.859375 C 13.941406 -10.210938 13.070312 -10.609375 11.84375 -11.046875 C 10.613281 -11.484375 9.648438 -11.882812 8.953125 -12.25 C 7.191406 -13.164062 5.800781 -14.203125 4.78125 -15.359375 C 3.757812 -16.515625 3.25 -18.046875 3.25 -19.953125 C 3.25 -22.804688 4.351562 -25.03125 6.5625 -26.625 C 8.78125 -28.21875 11.773438 -29.015625 15.546875 -29.015625 Z M 15.546875 -29.015625 "/></g></g></g><g fill="#ffffff" fill-opacity="1"><g transform="translate(21.652404, 52.427663)"><g><path d="M 5.953125 -3.34375 C 2.828125 -6.132812 1.265625 -9.707031 1.265625 -14.0625 C 1.265625 -18.425781 2.894531 -22.007812 6.15625 -24.8125 C 9.414062 -27.613281 13.445312 -29.015625 18.25 -29.015625 C 22.96875 -29.015625 26.945312 -27.601562 30.1875 -24.78125 C 33.4375 -21.957031 35.0625 -18.382812 35.0625 -14.0625 C 35.0625 -9.738281 33.472656 -6.175781 30.296875 -3.375 C 27.128906 -0.570312 23.113281 0.828125 18.25 0.828125 C 13.1875 0.828125 9.085938 -0.5625 5.953125 -3.34375 Z M 13.484375 -18.84375 C 12.222656 -17.601562 11.59375 -16.007812 11.59375 -14.0625 C 11.59375 -12.125 12.195312 -10.539062 13.40625 -9.3125 C 14.613281 -8.082031 16.207031 -7.46875 18.1875 -7.46875 C 20.09375 -7.46875 21.660156 -8.085938 22.890625 -9.328125 C 24.117188 -10.578125 24.734375 -12.15625 24.734375 -14.0625 C 24.734375 -16.007812 24.097656 -17.601562 22.828125 -18.84375 C 21.566406 -20.09375 20.019531 -20.71875 18.1875 -20.71875 C 16.320312 -20.71875 14.753906 -20.09375 13.484375 -18.84375 Z M 13.484375 -18.84375 "/></g></g></g><g fill="#ffffff" fill-opacity="1"><g transform="translate(52.807282, 52.427663)"><g><path d="M 18.296875 -21.046875 C 16.460938 -21.046875 14.882812 -20.367188 13.5625 -19.015625 C 12.25 -17.660156 11.59375 -16.03125 11.59375 -14.125 C 11.59375 -12.175781 12.25 -10.523438 13.5625 -9.171875 C 14.882812 -7.816406 16.460938 -7.140625 18.296875 -7.140625 C 19.179688 -7.140625 20.015625 -7.25 20.796875 -7.46875 C 21.585938 -7.6875 22.164062 -7.910156 22.53125 -8.140625 L 23.03125 -8.46875 L 26.328125 -1.703125 C 26.066406 -1.515625 25.707031 -1.285156 25.25 -1.015625 C 24.789062 -0.742188 23.742188 -0.367188 22.109375 0.109375 C 20.484375 0.585938 18.738281 0.828125 16.875 0.828125 C 12.726562 0.828125 9.085938 -0.625 5.953125 -3.53125 C 2.828125 -6.445312 1.265625 -9.941406 1.265625 -14.015625 C 1.265625 -18.117188 2.828125 -21.644531 5.953125 -24.59375 C 9.085938 -27.539062 12.726562 -29.015625 16.875 -29.015625 C 18.738281 -29.015625 20.457031 -28.796875 22.03125 -28.359375 C 23.613281 -27.921875 24.734375 -27.476562 25.390625 -27.03125 L 26.328125 -26.375 L 23.03125 -19.734375 C 21.820312 -20.609375 20.242188 -21.046875 18.296875 -21.046875 Z M 18.296875 -21.046875 "/></g></g></g><g fill="#ffffff" fill-opacity="1"><g transform="translate(74.620806, 52.427663)"><g><path d="M 3.296875 0 L 3.296875 -28.1875 L 13.03125 -28.1875 L 13.03125 -25.21875 L 13.140625 -25.21875 C 15.660156 -27.75 18.351562 -29.015625 21.21875 -29.015625 C 23.269531 -29.015625 25.191406 -28.59375 26.984375 -27.75 C 28.773438 -26.90625 30.128906 -25.601562 31.046875 -23.84375 C 33.898438 -27.289062 37.015625 -29.015625 40.390625 -29.015625 C 43.390625 -29.015625 45.96875 -28.171875 48.125 -26.484375 C 50.289062 -24.796875 51.375 -22.160156 51.375 -18.578125 L 51.375 0 L 41.65625 0 L 41.65625 -15.9375 C 41.65625 -17.4375 41.242188 -18.691406 40.421875 -19.703125 C 39.597656 -20.710938 38.359375 -21.21875 36.703125 -21.21875 C 35.273438 -21.21875 34.1875 -20.785156 33.4375 -19.921875 C 32.6875 -19.054688 32.273438 -18.019531 32.203125 -16.8125 L 32.203125 0 L 22.46875 0 L 22.46875 -15.9375 C 22.46875 -17.4375 22.054688 -18.691406 21.234375 -19.703125 C 20.410156 -20.710938 19.175781 -21.21875 17.53125 -21.21875 C 16.03125 -21.21875 14.90625 -20.75 14.15625 -19.8125 C 13.40625 -18.875 13.03125 -17.765625 13.03125 -16.484375 L 13.03125 0 Z M 3.296875 0 "/></g></g></g><g fill="#ffffff" fill-opacity="1"><g transform="translate(123.579211, 52.427663)"><g><path d="M 31.8125 -12.75 L 11.375 -12.75 C 11.375 -10.769531 12.015625 -9.300781 13.296875 -8.34375 C 14.578125 -7.394531 15.96875 -6.921875 17.46875 -6.921875 C 19.050781 -6.921875 20.296875 -7.128906 21.203125 -7.546875 C 22.117188 -7.972656 23.164062 -8.8125 24.34375 -10.0625 L 31.375 -6.546875 C 28.445312 -1.628906 23.578125 0.828125 16.765625 0.828125 C 12.515625 0.828125 8.867188 -0.625 5.828125 -3.53125 C 2.785156 -6.445312 1.265625 -9.957031 1.265625 -14.0625 C 1.265625 -18.164062 2.785156 -21.679688 5.828125 -24.609375 C 8.867188 -27.546875 12.515625 -29.015625 16.765625 -29.015625 C 21.234375 -29.015625 24.867188 -27.722656 27.671875 -25.140625 C 30.472656 -22.554688 31.875 -18.863281 31.875 -14.0625 C 31.875 -13.40625 31.851562 -12.96875 31.8125 -12.75 Z M 11.65625 -18.140625 L 22.359375 -18.140625 C 22.140625 -19.597656 21.5625 -20.722656 20.625 -21.515625 C 19.695312 -22.304688 18.5 -22.703125 17.03125 -22.703125 C 15.425781 -22.703125 14.144531 -22.28125 13.1875 -21.4375 C 12.238281 -20.59375 11.726562 -19.492188 11.65625 -18.140625 Z M 11.65625 -18.140625 "/></g></g></g><g fill="#ffffff" fill-opacity="1"><g transform="translate(151.547036, 52.427663)"><g><path d="M 5.21875 -3.484375 C 2.582031 -6.359375 1.265625 -9.882812 1.265625 -14.0625 C 1.265625 -18.238281 2.582031 -21.773438 5.21875 -24.671875 C 7.851562 -27.566406 11.207031 -29.015625 15.28125 -29.015625 C 19.007812 -29.015625 22.085938 -27.84375 24.515625 -25.5 L 24.515625 -47.265625 L 34.234375 -47.265625 L 34.234375 0 L 24.625 0 L 24.625 -3.1875 L 24.515625 -3.1875 C 22.085938 -0.507812 19.007812 0.828125 15.28125 0.828125 C 11.207031 0.828125 7.851562 -0.609375 5.21875 -3.484375 Z M 13.484375 -18.84375 C 12.222656 -17.601562 11.59375 -16.007812 11.59375 -14.0625 C 11.59375 -12.125 12.195312 -10.539062 13.40625 -9.3125 C 14.613281 -8.082031 16.207031 -7.46875 18.1875 -7.46875 C 20.09375 -7.46875 21.660156 -8.085938 22.890625 -9.328125 C 24.117188 -10.578125 24.734375 -12.15625 24.734375 -14.0625 C 24.734375 -16.007812 24.097656 -17.601562 22.828125 -18.84375 C 21.566406 -20.09375 20.019531 -20.71875 18.1875 -20.71875 C 16.320312 -20.71875 14.753906 -20.09375 13.484375 -18.84375 Z M 13.484375 -18.84375 "/></g></g></g><g fill="#7ed957" fill-opacity="1"><g transform="translate(183.920644, 52.427663)"><g><path d="M 9.5625 -11.765625 C 11.320312 -11.765625 12.8125 -11.148438 14.03125 -9.921875 C 15.257812 -8.691406 15.875 -7.195312 15.875 -5.4375 C 15.875 -3.71875 15.257812 -2.242188 14.03125 -1.015625 C 12.8125 0.210938 11.320312 0.828125 9.5625 0.828125 C 7.84375 0.828125 6.367188 0.210938 5.140625 -1.015625 C 3.910156 -2.242188 3.296875 -3.71875 3.296875 -5.4375 C 3.296875 -7.195312 3.910156 -8.691406 5.140625 -9.921875 C 6.367188 -11.148438 7.84375 -11.765625 9.5625 -11.765625 Z M 9.5625 -11.765625 "/></g></g></g><g fill="#ffffff" fill-opacity="1"><g transform="translate(197.936267, 52.427663)"><g><path d="M 5.21875 -3.484375 C 2.582031 -6.359375 1.265625 -9.882812 1.265625 -14.0625 C 1.265625 -18.238281 2.582031 -21.773438 5.21875 -24.671875 C 7.851562 -27.566406 11.207031 -29.015625 15.28125 -29.015625 C 19.007812 -29.015625 22.085938 -27.84375 24.515625 -25.5 L 24.515625 -28.1875 L 34.234375 -28.1875 L 34.234375 0 L 24.625 0 L 24.625 -3.1875 L 24.515625 -3.1875 C 22.085938 -0.507812 19.007812 0.828125 15.28125 0.828125 C 11.207031 0.828125 7.851562 -0.609375 5.21875 -3.484375 Z M 13.484375 -18.84375 C 12.222656 -17.601562 11.59375 -16.007812 11.59375 -14.0625 C 11.59375 -12.125 12.195312 -10.539062 13.40625 -9.3125 C 14.613281 -8.082031 16.207031 -7.46875 18.1875 -7.46875 C 20.09375 -7.46875 21.660156 -8.085938 22.890625 -9.328125 C 24.117188 -10.578125 24.734375 -12.15625 24.734375 -14.0625 C 24.734375 -16.007812 24.097656 -17.601562 22.828125 -18.84375 C 21.566406 -20.09375 20.019531 -20.71875 18.1875 -20.71875 C 16.320312 -20.71875 14.753906 -20.09375 13.484375 -18.84375 Z M 13.484375 -18.84375 "/></g></g></g><g fill="#ffffff" fill-opacity="1"><g transform="translate(230.300031, 52.427663)"><g><path d="M 32.3125 -24.703125 C 34.945312 -21.828125 36.265625 -18.300781 36.265625 -14.125 C 36.265625 -9.945312 34.945312 -6.410156 32.3125 -3.515625 C 29.675781 -0.617188 26.320312 0.828125 22.25 0.828125 C 18.519531 0.828125 15.445312 -0.34375 13.03125 -2.6875 L 13.03125 14.28125 L 3.296875 14.28125 L 3.296875 -28.1875 L 12.90625 -28.1875 L 12.90625 -25 L 13.03125 -25 C 15.445312 -27.675781 18.519531 -29.015625 22.25 -29.015625 C 26.320312 -29.015625 29.675781 -27.578125 32.3125 -24.703125 Z M 24.03125 -9.328125 C 25.300781 -10.578125 25.9375 -12.171875 25.9375 -14.109375 C 25.9375 -16.054688 25.332031 -17.644531 24.125 -18.875 C 22.914062 -20.101562 21.320312 -20.71875 19.34375 -20.71875 C 17.4375 -20.71875 15.867188 -20.09375 14.640625 -18.84375 C 13.410156 -17.601562 12.796875 -16.03125 12.796875 -14.125 C 12.796875 -12.175781 13.425781 -10.578125 14.6875 -9.328125 C 15.957031 -8.085938 17.507812 -7.46875 19.34375 -7.46875 C 21.207031 -7.46875 22.769531 -8.085938 24.03125 -9.328125 Z M 24.03125 -9.328125 "/></g></g></g><g fill="#ffffff" fill-opacity="1"><g transform="translate(262.663794, 52.427663)"><g><path d="M 32.3125 -24.703125 C 34.945312 -21.828125 36.265625 -18.300781 36.265625 -14.125 C 36.265625 -9.945312 34.945312 -6.410156 32.3125 -3.515625 C 29.675781 -0.617188 26.320312 0.828125 22.25 0.828125 C 18.519531 0.828125 15.445312 -0.34375 13.03125 -2.6875 L 13.03125 14.28125 L 3.296875 14.28125 L 3.296875 -28.1875 L 12.90625 -28.1875 L 12.90625 -25 L 13.03125 -25 C 15.445312 -27.675781 18.519531 -29.015625 22.25 -29.015625 C 26.320312 -29.015625 29.675781 -27.578125 32.3125 -24.703125 Z M 24.03125 -9.328125 C 25.300781 -10.578125 25.9375 -12.171875 25.9375 -14.109375 C 25.9375 -16.054688 25.332031 -17.644531 24.125 -18.875 C 22.914062 -20.101562 21.320312 -20.71875 19.34375 -20.71875 C 17.4375 -20.71875 15.867188 -20.09375 14.640625 -18.84375 C 13.410156 -17.601562 12.796875 -16.03125 12.796875 -14.125 C 12.796875 -12.175781 13.425781 -10.578125 14.6875 -9.328125 C 15.957031 -8.085938 17.507812 -7.46875 19.34375 -7.46875 C 21.207031 -7.46875 22.769531 -8.085938 24.03125 -9.328125 Z M 24.03125 -9.328125 "/></g></g></g></svg>